<?xml version="1.0" encoding="utf-8"?><svg xmlns="http://www.w3.org/2000/svg" viewBox="0 0 294.54 389.1"><defs><style>.cls-1{fill:#cc8e72;}</style></defs><g id="Layer_2" data-name="Layer 2"><g id="Layer_1-2" data-name="Layer 1"><path class="cls-1" d="M154.17,55.5c-54.68,0-99.31,44.58-99.49,99.4v29.73H92.19V155.16a62,62,0,0,1,117.15-28.47l3.91,7.59,32.57-19-3.64-6.88a99.31,99.31,0,0,0-88-52.91Z"/><path class="cls-1" d="M155.14,0l-5,.08C70.38,2.65,4.53,67,.26,146.55.09,149.47,0,152.3,0,155.14v29.49H37.59v-8.1c0-2.33.07-25.73.15-27.92C41,88.3,90.9,39.57,151.34,37.67c1.31-.05,2.61-.07,3.91-.07a117.65,117.65,0,0,1,102.9,60.78l4,7.27,32.37-19-3.83-6.92A155,155,0,0,0,155.14,0Z"/><path class="cls-1" d="M92.19,204.47H54.68v29.76c.18,54.8,44.81,99.38,99.49,99.38a99.32,99.32,0,0,0,88-52.92l3.64-6.87-32.57-19-3.91,7.58A62,62,0,0,1,92.19,234V204.47Z"/><path class="cls-1" d="M37.59,204.47H0V234c0,2.84.09,5.67.25,8.54,4.28,79.59,70.13,144,150.19,146.52l4.7.08a155,155,0,0,0,135.57-79.75l3.83-6.92-32.37-19-4,7.27A116.79,116.79,0,0,1,155.42,351.5q-2,0-4.08-.06C90.9,349.53,41,300.8,37.74,240.63c-.08-2.32-.15-25.73-.15-28.06v-8.1Z"/></g></g></svg>